<?xml version="1.0" standalone="no"?>
<!DOCTYPE svg PUBLIC "-//W3C//DTD SVG 20010904//EN"
 "http://www.w3.org/TR/2001/REC-SVG-20010904/DTD/svg10.dtd">
<svg version="1.0" xmlns="http://www.w3.org/2000/svg"
 width="212.000000pt" height="80.000000pt" viewBox="0 0 212.000000 80.000000"
 preserveAspectRatio="xMidYMid meet">
<metadata>
Created by potrace 1.15, written by Peter Selinger 2001-2017
</metadata>
<g transform="translate(0.000000,80.000000) scale(0.100000,-0.100000)"
fill="#000000" stroke="none">
<path d="M4 529 c-10 -17 16 -29 70 -29 l48 0 -7 -176 c-7 -169 -7 -176 11
-172 18 3 19 16 22 175 l2 172 58 3 c43 2 57 7 57 18 0 12 -22 15 -127 18 -87
2 -129 -1 -134 -9z"/>
<path d="M1232 520 c-82 -50 -60 -143 54 -221 34 -23 44 -36 44 -58 0 -37 -28
-61 -73 -61 -38 0 -57 19 -57 59 0 12 -7 21 -15 21 -22 0 -19 -63 4 -91 26
-32 108 -34 141 -4 51 46 45 117 -13 156 -67 46 -97 82 -97 114 0 65 80 90
118 38 16 -22 23 -25 33 -16 25 25 -37 83 -89 83 -9 0 -32 -9 -50 -20z"/>
<path d="M332 518 c-80 -40 -94 -260 -22 -341 35 -40 87 -43 124 -7 80 75 81
284 1 336 -30 20 -76 25 -103 12z m79 -38 c31 -17 49 -64 49 -128 0 -140 -75
-218 -134 -139 -22 30 -34 137 -22 200 12 62 59 92 107 67z"/>
<path d="M864 516 c-54 -24 -94 -101 -94 -181 0 -87 43 -156 111 -176 63 -19
95 14 87 92 -3 33 -4 34 -48 34 -33 0 -45 -4 -45 -15 0 -9 11 -16 28 -18 23
-3 27 -8 27 -33 0 -24 -4 -29 -25 -29 -61 0 -114 95 -99 178 14 79 44 113 107
121 28 4 42 11 42 21 0 20 -51 24 -91 6z"/>
<path d="M1417 523 c-8 -14 -19 -361 -12 -373 5 -8 11 -8 21 1 10 8 14 33 14
80 l0 69 65 0 65 0 0 -74 c0 -67 10 -100 23 -79 3 5 8 91 12 191 7 177 7 184
-11 180 -17 -3 -19 -14 -22 -91 l-3 -87 -64 0 -65 0 0 89 c0 79 -9 117 -23 94z"/>
<path d="M1646 522 c-2 -4 -6 -88 -8 -187 l-3 -180 90 0 c73 0 90 3 90 15 0
12 -13 14 -72 12 l-73 -3 0 60 0 60 52 3 c41 2 54 7 56 21 3 14 -5 17 -52 17
l-56 0 0 75 0 74 67 3 c55 2 68 6 71 21 3 15 -6 17 -77 17 -44 0 -82 -3 -85
-8z"/>
<path d="M517 398 c-10 -175 -9 -246 4 -254 21 -13 29 22 29 141 l1 120 28
-70 c15 -38 35 -83 43 -100 22 -41 84 -99 97 -91 7 5 11 70 11 192 0 157 -2
184 -15 184 -12 0 -15 -19 -16 -112 0 -62 -4 -133 -8 -158 l-7 -45 -22 35
c-20 31 -43 87 -96 233 -30 80 -42 61 -49 -75z"/>
<path d="M1837 398 c-10 -175 -9 -246 4 -254 21 -13 29 22 29 141 l1 120 28
-70 c15 -38 35 -83 43 -100 22 -41 84 -99 97 -91 7 5 11 70 11 192 0 157 -2
184 -15 184 -12 0 -15 -19 -16 -112 0 -62 -4 -133 -8 -158 l-7 -45 -22 35
c-20 31 -43 87 -96 233 -30 80 -42 61 -49 -75z"/>
</g>
</svg>
