M48
;DRILL file {KiCad 4.0.6} date 04/25/17 20:01:24
;FORMAT={-:-/ absolute / metric / decimal}
FMAT,2
METRIC,TZ
T1C1.000
%
G90
G05
M71
T1
X168.91Y-117.475
X171.45Y-117.475
X173.99Y-117.475
X176.53Y-117.475
X176.53Y-128.27
X179.07Y-117.475
X179.07Y-128.27
X181.61Y-117.475
X187.96Y-104.775
X187.96Y-120.65
X187.96Y-123.19
X187.96Y-125.73
X187.96Y-128.27
X187.96Y-130.81
X187.96Y-133.35
X187.96Y-135.89
X190.5Y-104.775
X193.04Y-104.775
X193.675Y-122.555
X194.31Y-115.57
X194.945Y-127.635
X196.215Y-122.555
X196.85Y-115.57
X198.755Y-122.555
X199.39Y-115.57
T0
M30
